<?xml version="1.0" standalone="no"?>
<!DOCTYPE svg PUBLIC "-//W3C//DTD SVG 20010904//EN"
 "http://www.w3.org/TR/2001/REC-SVG-20010904/DTD/svg10.dtd">
<svg version="1.0" xmlns="http://www.w3.org/2000/svg"
 width="1024.000000pt" height="1024.000000pt" viewBox="0 0 1024.000000 1024.000000"
 preserveAspectRatio="xMidYMid meet">

<g transform="translate(0.000000,1024.000000) scale(0.100000,-0.100000)"
fill="#f7a41e" stroke="#f7a41e">
<path d="M0 5120 l0 -5120 5120 0 5120 0 0 5120 0 5120 -5120 0 -5120 0 0
-5120z m5294 3421 c288 -51 533 -138 756 -268 136 -79 209 -127 210 -137 0 -5
-31 -41 -68 -80 -37 -39 -78 -84 -90 -100 l-22 -29 -73 50 c-256 177 -545 274
-942 314 -133 13 -291 7 -455 -17 -151 -22 -218 -39 -365 -91 -341 -120 -565
-273 -823 -561 -228 -255 -302 -378 -410 -677 -92 -253 -112 -370 -112 -640 0
-213 14 -339 59 -534 31 -137 63 -211 90 -211 9 0 208 194 443 432 235 238
431 436 435 441 5 4 129 127 277 273 l268 266 32 -38 c17 -21 57 -63 89 -93
31 -30 57 -58 57 -63 0 -27 -239 -280 -818 -867 -357 -361 -687 -697 -734
-746 l-85 -90 -36 60 c-81 137 -213 429 -251 556 -46 155 -70 305 -85 534 -15
224 6 421 75 699 46 183 163 440 276 609 66 98 226 293 315 383 78 79 277 238
388 309 272 176 620 296 965 334 147 16 498 6 634 -18z m1236 -620 c50 -41 90
-78 90 -84 0 -5 -220 -229 -489 -496 -479 -477 -1164 -1169 -1391 -1406 -140
-147 -973 -986 -1172 -1182 l-145 -142 -101 101 c-101 101 -101 102 -79 117
12 8 78 74 148 146 367 381 466 483 709 730 146 147 472 476 725 730 253 254
620 622 815 819 510 515 764 753 792 744 4 -2 49 -36 98 -77z m-1537 -292 c21
-5 53 -24 73 -41 97 -85 107 -226 24 -321 -133 -150 -362 -96 -411 97 -9 36
-8 55 5 98 39 133 172 205 309 167z m1941 -214 c31 -55 56 -107 56 -117 0 -9
-55 -69 -122 -135 -142 -136 -1059 -1053 -1224 -1223 -123 -127 -284 -279
-284 -268 0 3 -38 46 -85 95 -47 48 -87 96 -91 106 -8 24 100 139 626 667 245
245 576 579 735 742 l290 295 21 -31 c12 -18 47 -77 78 -131z m-2759 -153 c63
-67 115 -128 115 -135 -1 -6 -36 -49 -79 -94 l-78 -83 -45 48 c-24 26 -69 79
-99 117 -31 39 -104 117 -163 175 -58 57 -106 108 -106 111 0 4 29 28 63 53
35 24 72 56 81 71 l17 26 90 -83 c49 -46 141 -138 204 -206z m2903 -154 c108
-246 161 -572 148 -898 -15 -335 -76 -566 -228 -858 -117 -224 -223 -368 -418
-563 -196 -197 -337 -306 -550 -424 -58 -32 -120 -67 -139 -77 -89 -50 -296
-121 -501 -173 -203 -51 -494 -61 -753 -26 -310 41 -495 99 -782 243 -81 40
-255 149 -254 158 0 4 123 106 184 153 23 17 25 17 131 -53 114 -74 282 -146
450 -194 382 -108 803 -93 1198 44 248 86 458 200 639 347 110 90 320 315 406
435 88 123 193 323 239 459 76 218 117 490 109 724 -6 164 -18 244 -78 494
-16 68 -29 125 -29 127 0 2 15 10 33 18 41 18 111 87 129 126 7 16 16 30 19
30 4 0 25 -42 47 -92z m-1017 -1979 l-90 -93 -23 29 c-39 50 -128 145 -240
257 -60 58 -108 115 -108 125 0 10 35 52 77 93 l78 75 198 -197 198 -196 -90
-93z m-1075 262 c97 -44 154 -127 154 -222 -1 -126 -85 -221 -208 -236 -97
-11 -177 30 -226 116 -25 46 -30 66 -30 120 1 109 56 187 156 222 67 23 103
23 154 0z m2864 -1641 c0 -14 -7 -20 -24 -20 -23 0 -24 -2 -28 -94 -1 -52 -6
-97 -10 -101 -19 -19 -28 13 -28 101 l0 94 -35 0 c-28 0 -35 4 -35 20 0 18 7
20 80 20 73 0 80 -2 80 -20z m100 -47 l38 -63 28 55 c57 113 79 99 80 -50 1
-82 -2 -105 -12 -105 -15 0 -23 25 -26 90 l-3 45 -23 -67 c-13 -38 -28 -68
-33 -68 -5 0 -19 21 -31 47 -33 67 -51 69 -42 4 4 -33 3 -51 -4 -51 -6 0 -17
-3 -25 -6 -12 -4 -14 14 -14 116 0 143 8 149 67 53z m-541 -46 c5 -12 29 -52
53 -87 61 -89 128 -210 247 -445 55 -110 155 -303 221 -430 66 -126 120 -233
120 -237 0 -3 -64 -5 -142 -2 l-143 4 -47 102 c-41 90 -49 103 -70 101 -13 -1
-135 -3 -273 -4 l-250 -1 -34 -76 c-61 -134 -46 -126 -210 -126 -77 -1 -141 1
-141 3 0 20 428 839 502 959 21 34 61 107 88 162 28 55 55 100 60 100 6 0 14
-10 19 -23z m-4387 -52 c-5 -64 -22 -95 -102 -191 -36 -43 -139 -168 -229
-278 -91 -111 -207 -249 -258 -308 -51 -59 -93 -112 -93 -118 0 -7 109 -10
340 -10 l341 0 -3 -122 -3 -122 -570 3 c-313 1 -572 4 -574 6 -2 2 7 25 19 50
39 80 133 202 480 620 151 181 210 257 210 267 0 1 -134 3 -297 3 l-298 0 3
52 c3 46 -7 122 -23 178 -6 20 -1 20 528 20 l534 0 -5 -50z m1118 -74 l0 -128
-157 -4 c-87 -2 -233 -2 -326 1 l-167 5 0 -107 c0 -60 0 -111 0 -114 0 -3 128
-5 285 -4 l285 1 0 -126 0 -126 -287 7 -288 7 0 -122 0 -122 333 3 333 3 -3
-125 -3 -125 -42 0 c-24 1 -230 2 -458 3 l-415 2 0 595 0 595 453 3 c248 1
453 3 455 5 1 1 2 -56 2 -127z m403 83 c19 -25 95 -109 169 -188 73 -78 191
-211 261 -296 70 -85 141 -165 158 -178 l29 -24 3 239 c1 131 2 292 2 359 l0
121 129 6 c72 4 130 6 130 4 1 -1 0 -272 -2 -602 l-2 -600 -92 1 c-81 1 -92 4
-102 22 -6 11 -84 101 -172 199 -327 360 -384 425 -401 453 -9 17 -21 30 -26
30 -5 0 -6 -152 -2 -353 l8 -353 -132 1 -131 0 0 597 0 597 33 4 c95 12 102
10 140 -39z m1772 7 c210 -68 352 -220 399 -428 45 -200 -5 -383 -148 -539
-71 -78 -134 -116 -261 -160 -77 -27 -89 -28 -355 -34 -151 -3 -278 -5 -282
-2 -10 4 -10 338 -1 825 l6 368 286 -3 c265 -4 291 -6 356 -27z m-2135 -1696
l0 -245 -48 0 -47 0 -93 119 c-51 65 -104 129 -117 141 l-25 23 0 -141 0 -142
-50 0 -50 0 0 118 c0 66 -3 174 -7 240 l-6 122 51 0 c57 0 62 -4 202 -183 41
-53 78 -97 83 -97 4 0 7 63 7 139 l0 140 48 4 c26 2 48 4 50 5 1 1 2 -108 2
-243z m619 132 c-3 -5 -59 -7 -123 -5 l-116 3 0 -43 0 -42 103 2 102 3 3 -47
3 -48 -105 0 -106 0 0 -45 0 -45 120 0 120 0 0 -39 c0 -22 3 -46 6 -55 5 -14
-14 -16 -175 -16 l-180 0 -3 240 -3 240 175 2 175 3 5 -50 c3 -27 2 -54 -1
-58z m363 85 c12 -15 36 -49 53 -75 16 -26 34 -46 40 -44 5 2 33 33 60 70 l50
67 58 0 c31 0 57 -2 57 -5 0 -2 -29 -44 -64 -92 -99 -137 -99 -115 -6 -248 44
-64 80 -120 80 -126 0 -5 -29 -9 -65 -9 -42 0 -65 4 -65 11 0 9 -109 169 -115
169 -1 0 -28 -38 -60 -85 l-58 -85 -59 0 c-36 0 -58 4 -58 11 0 13 108 158
152 205 l29 31 -42 49 c-23 27 -62 76 -87 109 l-44 60 53 6 c30 3 57 6 61 7 3
1 17 -11 30 -26z m918 -37 l0 -55 -75 0 -75 0 0 -185 0 -185 -52 2 -53 3 0
180 0 180 -72 -4 -73 -3 0 61 0 61 200 0 200 0 0 -55z m-2730 -83 c43 -21 50
-56 20 -95 l-21 -27 -224 0 c-178 0 -225 3 -234 14 -14 16 -4 91 13 106 7 5
77 11 157 13 79 1 169 4 199 5 36 1 67 -4 90 -16z m3579 -7 c19 -18 16 -74 -4
-94 -13 -14 -52 -16 -261 -19 l-245 -3 -15 37 c-18 44 -8 79 28 94 36 15 479
2 497 -15z"/>
<path d="M7318 3053 c-36 -76 -69 -149 -73 -162 l-7 -24 83 6 c46 4 119 7 162
7 52 0 77 4 77 12 0 15 -162 298 -170 298 -4 0 -36 -62 -72 -137z"/>
<path d="M5920 3057 l0 -348 143 3 142 3 78 39 c129 64 188 159 190 301 1 104
-24 168 -92 236 -80 80 -136 99 -318 107 l-143 7 0 -348z"/>
</g>
</svg>
